# xmcd
#
# Track frame offsets:
#	150
#	12247
#	25454
#	40817
#	55268
#	69800
#	84852
#	97980
#	115019
#	126959
#	141425
#
# Disc length: 2081 seconds
#
# Revision: 0
# Processed by: cddbd v1.5.1PL2 Copyright (c) Steve Scherf et al.
# Submitted via: EasyCDDAExtractor 9.0.0.1
#
DISCID=88081f0b
DTITLE=Various Artist - Hillcrest 28
DYEAR=2006
DGENRE=Country
TTITLE0=Didi Perry - Are You Foolin' Me Cowboy
TTITLE1=Patrick Glenn - All Roads Lead Back To You
TTITLE2=Ann Pascoe - I Believe In Me
TTITLE3=Scott Markley - Why
TTITLE4=Clelia Adams - Heartbreat Highway
TTITLE5=Arly Karlsen - The Gambler
TTITLE6=Lucie Diamond - Did He Mention My Name
TTITLE7=Neon Blue - One Lonely Night
TTITLE8=Rhonda Grant - Out On The Town
TTITLE9=Mandy Strobel - Another Man In Black
TTITLE10=Judy Harrison - Mama Used To Rock Me With A Beat
EXTD=
EXTT0=
EXTT1=
EXTT2=
EXTT3=
EXTT4=
EXTT5=
EXTT6=
EXTT7=
EXTT8=
EXTT9=
EXTT10=
PLAYORDER=
